<svg width="24" height="20" viewBox="0 0 24 20" fill="none" xmlns="http://www.w3.org/2000/svg">
<path d="M21.828 0.399902H2.4C1.08 0.399902 0.012 1.4799 0.012 2.7999V7.5999C1.332 7.5999 2.4 8.6799 2.4 9.9999C2.4 11.3199 1.332 12.3999 0 12.3999V17.1999C0 18.5199 1.08 19.5999 2.4 19.5999H21.6C22.92 19.5999 24 18.5199 24 17.1999V2.7999C24 1.4799 23.028 0.399902 21.828 0.399902ZM18.876 11.5599L8.244 14.3919L6.252 10.9359L7.368 10.6359L8.88 11.8239L11.748 11.0559L8.868 6.0639L10.548 5.6079L15.36 10.0959L18.288 9.3159C18.9 9.1479 19.536 9.5199 19.704 10.1319C19.86 10.7439 19.5 11.3799 18.876 11.5599Z" fill="#96172E"/>
</svg>
