<svg width="203" height="40" viewBox="0 0 203 40" fill="none" xmlns="http://www.w3.org/2000/svg">
<path d="M197.647 21.6128C197.221 20.2136 195.822 19.1795 190.894 18.8145C191.685 19.7269 192.537 20.5786 193.388 21.4303H195.883C196.917 21.3694 197.403 21.4911 197.647 21.6128Z" fill="white"/>
<path d="M178.728 7.37772C178.484 12.731 181.343 18.0843 190.773 18.8143H190.894C186.088 13.2177 182.864 6.10022 181.587 0.199412C181.587 0.138578 178.91 2.45024 178.728 7.37772Z" fill="white"/>
<path d="M193.388 21.3691C189.678 21.3691 183.229 21.3691 183.229 21.3691C183.351 21.6733 183.838 21.9166 184.872 21.9775C191.198 22.3425 192.111 27.3308 201.175 27.3308C201.966 27.3308 202.453 27.27 203 27.2091C199.411 26.1141 196.187 24.0458 193.388 21.3691Z" fill="white"/>
<path d="M105.485 22.0992L103.66 17.05H95.2646L93.4397 22.0992H91.7363L98.6105 4.03174H100.435L107.37 22.0992H105.485ZM99.4621 5.6134L95.7513 15.6509H103.112L99.4621 5.6134Z" fill="white"/>
<path d="M110.412 5.97862C109.682 5.97862 109.074 5.43112 109.074 4.70112C109.074 3.97112 109.621 3.36279 110.351 3.36279C111.081 3.36279 111.629 3.91029 111.629 4.64029C111.69 5.37029 111.142 5.97862 110.412 5.97862ZM109.621 9.14193H111.264V22.0994H109.621V9.14193Z" fill="white"/>
<path d="M122.153 10.6629C122.153 10.6629 121.849 10.4804 121.301 10.4804C120.754 10.4804 120.024 10.6021 119.294 11.1495C118.564 11.697 117.59 12.8529 117.347 14.4345V22.0995H115.765V9.14206H117.225L117.347 11.8187C118.077 10.2371 119.537 8.83789 121.423 8.83789C121.97 8.83789 122.396 8.95956 122.396 8.95956L122.153 10.6629Z" fill="white"/>
<path d="M126.654 3.42334H125.012V22.0383H126.654V3.42334Z" fill="white"/>
<path d="M132.008 5.97862C131.278 5.97862 130.669 5.43112 130.669 4.70112C130.669 3.97112 131.217 3.36279 131.947 3.36279C132.677 3.36279 133.224 3.91029 133.224 4.64029C133.285 5.37029 132.738 5.97862 132.008 5.97862ZM131.156 9.14193H132.799V22.0994H131.156V9.14193Z" fill="white"/>
<path d="M145.999 22.0992V14.1909C145.999 11.9401 145.33 10.4193 143.079 10.4193C140.829 10.4193 139.308 12.9134 139.004 14.3126V22.1601H137.361V9.14177H138.821L138.943 11.6968C139.673 10.2976 141.133 8.89844 143.444 8.89844C145.695 8.89844 147.581 10.1759 147.581 13.5826V22.0992H145.999Z" fill="white"/>
<path d="M152.569 15.8334C152.569 18.8142 154.09 20.9434 156.828 20.9434C159.565 20.9434 160.964 19.4226 160.964 19.4226L161.755 20.5176C161.755 20.5176 160.113 22.3425 156.706 22.3425C153.299 22.3425 150.866 19.7876 150.866 15.6509C150.866 11.4534 153.421 8.89844 156.706 8.89844C159.991 8.89844 162.059 11.4534 162.059 14.9817V15.8334H152.569ZM156.645 10.2368C153.847 10.2368 152.752 12.7309 152.569 14.5559H160.417C160.356 12.4268 159.383 10.2368 156.645 10.2368Z" fill="white"/>
<path d="M168.568 22.3425C165.709 22.3425 164.067 20.4567 163.763 20.0309L164.797 19.0576C165.344 19.7876 166.743 21.0042 168.568 21.0042C170.393 21.0042 171.549 20.1526 171.549 18.8142C171.549 17.4151 170.211 16.9284 169.481 16.6242C168.751 16.3201 167.413 15.9551 166.865 15.7117C166.257 15.4684 164.371 14.6167 164.371 12.4876C164.371 10.3584 166.196 8.89844 168.751 8.89844C171.306 8.89844 172.827 10.4193 172.948 10.6018L172.097 11.7576C171.549 11.1493 170.272 10.2368 168.69 10.2368C167.108 10.2368 165.831 10.9059 165.831 12.3051C165.831 13.7043 167.169 14.1301 167.96 14.4342C168.812 14.7384 169.663 14.9817 170.393 15.2859C171.123 15.5901 173.07 16.4417 173.07 18.5709C173.131 20.7001 171.367 22.3425 168.568 22.3425Z" fill="white"/>
<path d="M32.9715 21.9777H29.3215V8.65527H32.9715V20.7002V21.9777Z" fill="white"/>
<path d="M31.1466 7.19516C29.9907 7.19516 29.0782 6.28266 29.0782 5.18767C29.0782 4.09267 29.9907 3.18018 31.1466 3.18018C32.3024 3.18018 33.2149 4.09267 33.2149 5.18767C33.2149 6.28266 32.3024 7.19516 31.1466 7.19516Z" fill="white"/>
<path d="M68.9239 22.2819C66.8555 22.2819 65.213 21.5519 63.9964 20.2135C62.9014 18.9969 62.3539 17.2935 62.3539 15.4077C62.3539 13.4611 63.023 11.6361 64.3005 10.3586C65.578 9.08107 67.3422 8.35107 69.228 8.35107C70.7488 8.35107 71.9655 8.65524 73.1213 9.3244L72.9997 12.3052C72.0872 11.5752 70.8705 11.2102 69.6539 11.2102C67.5247 11.2102 66.0039 12.9136 66.0039 15.2252C66.0039 17.111 66.9772 19.301 69.6539 19.301C70.9313 19.301 72.0263 18.7535 72.8172 18.3277L73.7905 20.8827C72.7563 21.5519 70.8097 22.2819 68.9239 22.2819Z" fill="white"/>
<path d="M17.2158 21.9774H13.3833L11.6191 17.415H5.35331L3.64999 21.9774H0L7.1783 3.42334H9.79413L17.2158 21.9774ZM6.50914 14.4341H10.4633L9.06413 10.48C8.8208 9.87165 8.6383 9.32415 8.51663 8.77665C8.39497 9.26332 8.21247 9.74998 7.96913 10.4191L6.50914 14.4341Z" fill="white"/>
<path d="M28.2265 8.65527H24.6374L21.4132 17.2936L18.2499 8.65527H14.5999L19.4666 20.5177C19.8316 21.4302 20.3791 21.9777 21.4741 21.9777H22.6907L28.2265 8.65527Z" fill="white"/>
<path d="M39.1766 22.2821C36.5608 22.2821 34.7358 20.5179 34.7358 17.9629C34.7358 15.2862 36.8041 13.6438 40.3324 13.5221L42.5224 13.4613V13.2788C42.5224 11.5754 41.2449 11.2713 40.1499 11.2713C39.0549 11.2713 38.0208 11.5754 36.8041 12.3054L35.5874 9.93294C37.0474 8.95961 38.8724 8.41211 40.8799 8.41211C44.4691 8.41211 46.2332 9.99377 46.2332 13.2788V19.3621C46.2332 20.5179 46.3549 21.3087 46.5374 22.0387H44.4691C43.5566 22.0387 43.2524 21.6737 42.9482 20.9437C41.8532 21.8562 40.6366 22.2821 39.1766 22.2821ZM42.5224 16.0162L40.8191 16.0771C38.6291 16.1379 38.3858 17.0504 38.3858 17.6587C38.3858 18.6929 39.1158 19.3012 40.3324 19.3012C41.1841 19.3012 41.9141 19.0579 42.5224 18.5712V16.0162Z" fill="white"/>
<path d="M78.9005 22.2821C76.2846 22.2821 74.4597 20.5179 74.4597 17.9629C74.4597 15.2862 76.528 13.6438 80.0563 13.5221L82.1855 13.4613V13.2788C82.1855 11.5754 80.908 11.2713 79.7521 11.2713C78.6571 11.2713 77.623 11.5754 76.4063 12.3054L75.1897 9.93294C76.6496 8.95961 78.4746 8.41211 80.4821 8.41211C84.0713 8.41211 85.8354 9.99377 85.8354 13.2788V19.3621C85.8354 20.5179 85.9571 21.3087 86.1396 22.0387H84.1321C83.2196 22.0387 82.9155 21.6737 82.6113 20.9437C81.5771 21.8562 80.3605 22.2821 78.9005 22.2821ZM82.2463 16.0162L80.543 16.0771C78.353 16.1379 78.1096 17.0504 78.1096 17.6587C78.1096 18.6929 78.8396 19.3012 80.0563 19.3012C80.908 19.3012 81.638 19.0579 82.2463 18.5712V16.0162Z" fill="white"/>
<path d="M60.7722 21.9777H57.1222V14.1911C57.1222 12.3661 56.5747 11.5144 55.3581 11.5144C54.3847 11.5144 53.3506 11.9402 52.1947 12.7919V21.9777H48.6056V8.65524H50.0048C51.0389 8.65524 51.7081 9.08107 52.0122 9.8719V9.93274C53.5331 8.83774 54.9322 8.35107 56.5139 8.35107C58.5822 8.35107 60.7722 9.62857 60.7722 13.1569V21.9777Z" fill="white"/>
<path d="M111.507 25.9927C112.724 25.9927 113.941 26.3577 115.036 27.1485L114.488 28.0002C113.636 27.3918 112.663 27.0268 111.69 27.0268C109.317 27.0268 107.736 28.791 107.736 31.346C107.736 33.901 109.317 35.6651 111.69 35.6651C112.663 35.6651 113.636 35.3001 114.488 34.6918L115.036 35.5435C113.941 36.2735 112.724 36.6993 111.507 36.6993C108.466 36.6993 106.397 34.5093 106.397 31.2852C106.397 28.061 108.466 25.9927 111.507 25.9927Z" fill="white"/>
<path d="M119.537 28.8516C121.788 28.8516 123.37 30.4941 123.37 32.8057C123.37 35.1174 121.788 36.7599 119.537 36.7599C117.286 36.7599 115.705 35.1174 115.705 32.8057C115.705 30.4941 117.286 28.8516 119.537 28.8516ZM119.537 35.7865C121.058 35.7865 122.092 34.5699 122.092 32.8057C122.092 31.0416 120.997 29.8249 119.537 29.8249C118.016 29.8249 116.982 31.0416 116.982 32.8057C116.982 34.5699 118.016 35.7865 119.537 35.7865Z" fill="white"/>
<path d="M124.647 29.0343H125.62L125.803 30.4334C126.168 29.4601 127.08 28.9126 128.115 28.9126C128.419 28.9126 128.723 28.9734 129.088 29.0343L128.966 30.0684C128.662 30.0076 128.358 29.9468 128.054 29.9468C126.776 29.9468 125.864 30.9809 125.864 32.5018V36.5776H124.647V29.0343Z" fill="white"/>
<path d="M130 29.0341H130.974L131.156 30.3116C131.704 29.3991 132.616 28.8516 133.772 28.8516C135.719 28.8516 137.179 30.4941 137.179 32.8057C137.179 35.1174 135.78 36.7599 133.772 36.7599C132.677 36.7599 131.825 36.2732 131.278 35.4215V39.8015H130.061V29.0341H130ZM133.407 29.8857C132.069 29.8857 131.156 30.8591 131.156 32.1974V33.414C131.156 34.8132 132.069 35.7257 133.407 35.7257C134.806 35.7257 135.84 34.509 135.84 32.8057C135.84 31.1024 134.806 29.8857 133.407 29.8857Z" fill="white"/>
<path d="M141.68 28.8516C143.931 28.8516 145.513 30.4941 145.513 32.8057C145.513 35.1174 143.931 36.7599 141.68 36.7599C139.43 36.7599 137.848 35.1174 137.848 32.8057C137.848 30.4941 139.43 28.8516 141.68 28.8516ZM141.68 35.7865C143.201 35.7865 144.235 34.5699 144.235 32.8057C144.235 31.0416 143.14 29.8249 141.68 29.8249C140.16 29.8249 139.125 31.0416 139.125 32.8057C139.125 34.5699 140.16 35.7865 141.68 35.7865Z" fill="white"/>
<path d="M146.851 29.0343H147.825L148.007 30.4334C148.372 29.4601 149.285 28.9126 150.319 28.9126C150.623 28.9126 150.927 28.9734 151.292 29.0343L151.17 30.0684C150.866 30.0076 150.562 29.9468 150.258 29.9468C148.98 29.9468 148.068 30.9809 148.068 32.5018V36.5776H146.851V29.0343Z" fill="white"/>
<path d="M155.064 32.0149C155.611 32.0149 156.159 32.0757 156.767 32.2582V31.4674C156.767 30.4941 156.037 29.8249 154.942 29.8249C154.151 29.8249 153.3 30.0074 152.448 30.3724L152.083 29.4599C153.117 29.0341 154.09 28.8516 155.064 28.8516C156.767 28.8516 157.923 29.8857 157.923 31.4674V35.1174C157.923 35.5432 158.166 35.7865 158.592 35.7865C158.714 35.7865 158.896 35.7257 159.018 35.7257L159.139 36.6382C158.896 36.699 158.592 36.699 158.349 36.699C157.558 36.699 157.01 36.2124 156.889 35.4215C156.28 36.2124 155.307 36.699 154.273 36.699C152.813 36.699 151.657 35.7257 151.657 34.4482C151.596 32.9274 152.935 32.0149 155.064 32.0149ZM154.516 35.8474C155.794 35.8474 156.706 34.9349 156.706 33.5965V32.9882C156.159 32.8665 155.672 32.8057 155.185 32.8057C153.725 32.8057 152.813 33.414 152.813 34.4482C152.813 35.239 153.543 35.8474 154.516 35.8474Z" fill="white"/>
<path d="M161.816 29.0343H164.189V30.0076H161.816V34.4485C161.816 35.2393 162.364 35.726 163.094 35.726C163.398 35.726 163.763 35.6651 164.189 35.5435L164.371 36.5168C163.824 36.6384 163.337 36.6993 162.85 36.6993C161.512 36.6993 160.599 35.7868 160.599 34.5093V29.9468H159.018V28.9735H160.599V26.7227H161.816V29.0343Z" fill="white"/>
<path d="M168.569 28.8516C170.576 28.8516 171.975 30.4332 171.975 32.684C171.975 32.8665 171.975 32.9882 171.975 33.1099H166.135C166.257 34.6915 167.352 35.7865 168.934 35.7865C169.603 35.7865 170.394 35.604 171.184 35.1782L171.549 36.0299C170.576 36.5165 169.603 36.7599 168.751 36.7599C166.44 36.7599 164.858 35.1174 164.858 32.8057C164.919 30.4941 166.439 28.8516 168.569 28.8516ZM166.135 32.319H170.759C170.698 30.8591 169.785 29.8249 168.569 29.8249C167.23 29.8249 166.257 30.7982 166.135 32.319Z" fill="white"/>
</svg>
