<svg width="72" height="23" viewBox="0 0 72 23" fill="none" xmlns="http://www.w3.org/2000/svg">
<path d="M33.6895 3.6765C33.6535 3.7395 33.6145 3.786 33.5725 3.816C33.5335 3.843 33.484 3.8565 33.424 3.8565C33.361 3.8565 33.292 3.834 33.217 3.789C33.145 3.741 33.058 3.6885 32.956 3.6315C32.854 3.5745 32.734 3.5235 32.596 3.4785C32.461 3.4305 32.3005 3.4065 32.1145 3.4065C31.9465 3.4065 31.7995 3.4275 31.6735 3.4695C31.5475 3.5085 31.441 3.564 31.354 3.636C31.27 3.708 31.207 3.795 31.165 3.897C31.123 3.996 31.102 4.1055 31.102 4.2255C31.102 4.3785 31.144 4.506 31.228 4.608C31.315 4.71 31.429 4.797 31.57 4.869C31.711 4.941 31.8715 5.0055 32.0515 5.0625C32.2315 5.1195 32.416 5.181 32.605 5.247C32.794 5.31 32.9785 5.385 33.1585 5.472C33.3385 5.556 33.499 5.664 33.64 5.796C33.781 5.925 33.8935 6.084 33.9775 6.273C34.0645 6.462 34.108 6.6915 34.108 6.9615C34.108 7.2555 34.057 7.5315 33.955 7.7895C33.856 8.0445 33.709 8.268 33.514 8.46C33.322 8.649 33.0865 8.799 32.8075 8.91C32.5285 9.018 32.209 9.072 31.849 9.072C31.642 9.072 31.438 9.051 31.237 9.009C31.036 8.97 30.8425 8.913 30.6565 8.838C30.4735 8.763 30.301 8.673 30.139 8.568C29.977 8.463 29.833 8.346 29.707 8.217L30.0625 7.6365C30.0925 7.5945 30.1315 7.56 30.1795 7.533C30.2275 7.503 30.2785 7.488 30.3325 7.488C30.4075 7.488 30.4885 7.5195 30.5755 7.5825C30.6625 7.6425 30.766 7.71 30.886 7.785C31.006 7.86 31.1455 7.929 31.3045 7.992C31.4665 8.052 31.66 8.082 31.885 8.082C32.23 8.082 32.497 8.001 32.686 7.839C32.875 7.674 32.9695 7.4385 32.9695 7.1325C32.9695 6.9615 32.926 6.822 32.839 6.714C32.755 6.606 32.6425 6.516 32.5015 6.444C32.3605 6.369 32.2 6.306 32.02 6.255C31.84 6.204 31.657 6.1485 31.471 6.0885C31.285 6.0285 31.102 5.9565 30.922 5.8725C30.742 5.7885 30.5815 5.679 30.4405 5.544C30.2995 5.409 30.1855 5.241 30.0985 5.04C30.0145 4.836 29.9725 4.5855 29.9725 4.2885C29.9725 4.0515 30.019 3.8205 30.112 3.5955C30.208 3.3705 30.346 3.171 30.526 2.997C30.706 2.823 30.928 2.6835 31.192 2.5785C31.456 2.4735 31.759 2.421 32.101 2.421C32.485 2.421 32.839 2.481 33.163 2.601C33.487 2.721 33.763 2.889 33.991 3.105L33.6895 3.6765ZM36.1229 4.383V9H35.0069V4.383H36.1229ZM36.2759 3.0375C36.2759 3.1335 36.2564 3.2235 36.2174 3.3075C36.1784 3.3915 36.1259 3.465 36.0599 3.528C35.9969 3.591 35.9219 3.642 35.8349 3.681C35.7479 3.717 35.6549 3.735 35.5559 3.735C35.4599 3.735 35.3684 3.717 35.2814 3.681C35.1974 3.642 35.1239 3.591 35.0609 3.528C34.9979 3.465 34.9469 3.3915 34.9079 3.3075C34.8719 3.2235 34.8539 3.1335 34.8539 3.0375C34.8539 2.9385 34.8719 2.8455 34.9079 2.7585C34.9469 2.6715 34.9979 2.5965 35.0609 2.5335C35.1239 2.4705 35.1974 2.421 35.2814 2.385C35.3684 2.346 35.4599 2.3265 35.5559 2.3265C35.6549 2.3265 35.7479 2.346 35.8349 2.385C35.9219 2.421 35.9969 2.4705 36.0599 2.5335C36.1259 2.5965 36.1784 2.6715 36.2174 2.7585C36.2564 2.8455 36.2759 2.9385 36.2759 3.0375ZM38.795 9.072C38.393 9.072 38.084 8.9595 37.868 8.7345C37.655 8.5065 37.5485 8.193 37.5485 7.794V5.2155H37.076C37.016 5.2155 36.965 5.196 36.923 5.157C36.881 5.118 36.86 5.0595 36.86 4.9815V4.5405L37.6025 4.419L37.8365 3.159C37.8515 3.099 37.88 3.0525 37.922 3.0195C37.964 2.9865 38.018 2.97 38.084 2.97H38.66V4.4235H39.893V5.2155H38.66V7.7175C38.66 7.8615 38.6945 7.974 38.7635 8.055C38.8355 8.136 38.933 8.1765 39.056 8.1765C39.125 8.1765 39.182 8.169 39.227 8.154C39.275 8.136 39.3155 8.118 39.3485 8.1C39.3845 8.082 39.416 8.0655 39.443 8.0505C39.47 8.0325 39.497 8.0235 39.524 8.0235C39.557 8.0235 39.584 8.0325 39.605 8.0505C39.626 8.0655 39.6485 8.0895 39.6725 8.1225L40.0055 8.6625C39.8435 8.7975 39.6575 8.8995 39.4475 8.9685C39.2375 9.0375 39.02 9.072 38.795 9.072ZM41.7567 4.383V9H40.6407V4.383H41.7567ZM41.9097 3.0375C41.9097 3.1335 41.8902 3.2235 41.8512 3.3075C41.8122 3.3915 41.7597 3.465 41.6937 3.528C41.6307 3.591 41.5557 3.642 41.4687 3.681C41.3817 3.717 41.2887 3.735 41.1897 3.735C41.0937 3.735 41.0022 3.717 40.9152 3.681C40.8312 3.642 40.7577 3.591 40.6947 3.528C40.6317 3.465 40.5807 3.3915 40.5417 3.3075C40.5057 3.2235 40.4877 3.1335 40.4877 3.0375C40.4877 2.9385 40.5057 2.8455 40.5417 2.7585C40.5807 2.6715 40.6317 2.5965 40.6947 2.5335C40.7577 2.4705 40.8312 2.421 40.9152 2.385C41.0022 2.346 41.0937 2.3265 41.1897 2.3265C41.2887 2.3265 41.3817 2.346 41.4687 2.385C41.5557 2.421 41.6307 2.4705 41.6937 2.5335C41.7597 2.5965 41.8122 2.6715 41.8512 2.7585C41.8902 2.8455 41.9097 2.9385 41.9097 3.0375ZM44.9328 4.311C45.2748 4.311 45.5853 4.3665 45.8643 4.4775C46.1463 4.5885 46.3863 4.746 46.5843 4.95C46.7853 5.154 46.9398 5.403 47.0478 5.697C47.1558 5.991 47.2098 6.3195 47.2098 6.6825C47.2098 7.0485 47.1558 7.3785 47.0478 7.6725C46.9398 7.9665 46.7853 8.217 46.5843 8.424C46.3863 8.631 46.1463 8.79 45.8643 8.901C45.5853 9.012 45.2748 9.0675 44.9328 9.0675C44.5878 9.0675 44.2743 9.012 43.9923 8.901C43.7103 8.79 43.4688 8.631 43.2678 8.424C43.0698 8.217 42.9153 7.9665 42.8043 7.6725C42.6963 7.3785 42.6423 7.0485 42.6423 6.6825C42.6423 6.3195 42.6963 5.991 42.8043 5.697C42.9153 5.403 43.0698 5.154 43.2678 4.95C43.4688 4.746 43.7103 4.5885 43.9923 4.4775C44.2743 4.3665 44.5878 4.311 44.9328 4.311ZM44.9328 8.2125C45.3168 8.2125 45.6003 8.0835 45.7833 7.8255C45.9693 7.5675 46.0623 7.1895 46.0623 6.6915C46.0623 6.1935 45.9693 5.814 45.7833 5.553C45.6003 5.292 45.3168 5.1615 44.9328 5.1615C44.5428 5.1615 44.2533 5.2935 44.0643 5.5575C43.8783 5.8185 43.7853 6.1965 43.7853 6.6915C43.7853 7.1865 43.8783 7.5645 44.0643 7.8255C44.2533 8.0835 44.5428 8.2125 44.9328 8.2125ZM32.866 15.283C32.836 15.331 32.8045 15.3655 32.7715 15.3865C32.7385 15.4045 32.6965 15.4135 32.6455 15.4135C32.5915 15.4135 32.533 15.3985 32.47 15.3685C32.41 15.3385 32.3395 15.3055 32.2585 15.2695C32.1775 15.2305 32.0845 15.196 31.9795 15.166C31.8775 15.136 31.756 15.121 31.615 15.121C31.396 15.121 31.2235 15.1675 31.0975 15.2605C30.9745 15.3535 30.913 15.475 30.913 15.625C30.913 15.724 30.9445 15.808 31.0075 15.877C31.0735 15.943 31.159 16.0015 31.264 16.0525C31.372 16.1035 31.4935 16.15 31.6285 16.192C31.7635 16.231 31.9 16.2745 32.038 16.3225C32.179 16.3705 32.317 16.426 32.452 16.489C32.587 16.549 32.707 16.627 32.812 16.723C32.92 16.816 33.0055 16.9285 33.0685 17.0605C33.1345 17.1925 33.1675 17.3515 33.1675 17.5375C33.1675 17.7595 33.127 17.965 33.046 18.154C32.968 18.34 32.851 18.502 32.695 18.64C32.539 18.775 32.3455 18.8815 32.1145 18.9595C31.8865 19.0345 31.6225 19.072 31.3225 19.072C31.1635 19.072 31.0075 19.057 30.8545 19.027C30.7045 19 30.559 18.961 30.418 18.91C30.28 18.859 30.151 18.799 30.031 18.73C29.914 18.661 29.8105 18.586 29.7205 18.505L29.977 18.082C30.01 18.031 30.049 17.992 30.094 17.965C30.139 17.938 30.196 17.9245 30.265 17.9245C30.334 17.9245 30.3985 17.944 30.4585 17.983C30.5215 18.022 30.5935 18.064 30.6745 18.109C30.7555 18.154 30.85 18.196 30.958 18.235C31.069 18.274 31.2085 18.2935 31.3765 18.2935C31.5085 18.2935 31.621 18.2785 31.714 18.2485C31.81 18.2155 31.888 18.1735 31.948 18.1225C32.011 18.0715 32.056 18.013 32.083 17.947C32.113 17.878 32.128 17.8075 32.128 17.7355C32.128 17.6275 32.095 17.539 32.029 17.47C31.966 17.401 31.8805 17.341 31.7725 17.29C31.6675 17.239 31.546 17.194 31.408 17.155C31.273 17.113 31.1335 17.068 30.9895 17.02C30.8485 16.972 30.709 16.9165 30.571 16.8535C30.436 16.7875 30.3145 16.705 30.2065 16.606C30.1015 16.507 30.016 16.3855 29.95 16.2415C29.887 16.0975 29.8555 15.9235 29.8555 15.7195C29.8555 15.5305 29.893 15.3505 29.968 15.1795C30.043 15.0085 30.1525 14.86 30.2965 14.734C30.4435 14.605 30.625 14.503 30.841 14.428C31.06 14.35 31.312 14.311 31.597 14.311C31.915 14.311 32.2045 14.3635 32.4655 14.4685C32.7265 14.5735 32.944 14.7115 33.118 14.8825L32.866 15.283ZM36.9786 16.1605C36.9786 16.0165 36.9576 15.8815 36.9156 15.7555C36.8766 15.6265 36.8166 15.514 36.7356 15.418C36.6546 15.322 36.5511 15.247 36.4251 15.193C36.3021 15.136 36.1581 15.1075 35.9931 15.1075C35.6721 15.1075 35.4186 15.199 35.2326 15.382C35.0496 15.565 34.9326 15.8245 34.8816 16.1605H36.9786ZM34.8591 16.831C34.8771 17.068 34.9191 17.2735 34.9851 17.4475C35.0511 17.6185 35.1381 17.761 35.2461 17.875C35.3541 17.986 35.4816 18.07 35.6286 18.127C35.7786 18.181 35.9436 18.208 36.1236 18.208C36.3036 18.208 36.4581 18.187 36.5871 18.145C36.7191 18.103 36.8331 18.0565 36.9291 18.0055C37.0281 17.9545 37.1136 17.908 37.1856 17.866C37.2606 17.824 37.3326 17.803 37.4016 17.803C37.4946 17.803 37.5636 17.8375 37.6086 17.9065L37.9281 18.3115C37.8051 18.4555 37.6671 18.577 37.5141 18.676C37.3611 18.772 37.2006 18.85 37.0326 18.91C36.8676 18.967 36.6981 19.0075 36.5241 19.0315C36.3531 19.0555 36.1866 19.0675 36.0246 19.0675C35.7036 19.0675 35.4051 19.015 35.1291 18.91C34.8531 18.802 34.6131 18.6445 34.4091 18.4375C34.2051 18.2275 34.0446 17.9695 33.9276 17.6635C33.8106 17.3545 33.7521 16.9975 33.7521 16.5925C33.7521 16.2775 33.8031 15.982 33.9051 15.706C34.0071 15.427 34.1526 15.1855 34.3416 14.9815C34.5336 14.7745 34.7661 14.611 35.0391 14.491C35.3151 14.371 35.6256 14.311 35.9706 14.311C36.2616 14.311 36.5301 14.3575 36.7761 14.4505C37.0221 14.5435 37.2336 14.68 37.4106 14.86C37.5876 15.037 37.7256 15.256 37.8246 15.517C37.9266 15.775 37.9776 16.0705 37.9776 16.4035C37.9776 16.5715 37.9596 16.6855 37.9236 16.7455C37.8876 16.8025 37.8186 16.831 37.7166 16.831H34.8591ZM40.4992 16.579C40.6372 16.579 40.7572 16.561 40.8592 16.525C40.9612 16.486 41.0452 16.4335 41.1112 16.3675C41.1802 16.3015 41.2312 16.222 41.2642 16.129C41.3002 16.036 41.3182 15.934 41.3182 15.823C41.3182 15.595 41.2492 15.415 41.1112 15.283C40.9762 15.148 40.7722 15.0805 40.4992 15.0805C40.2262 15.0805 40.0207 15.148 39.8827 15.283C39.7477 15.415 39.6802 15.595 39.6802 15.823C39.6802 15.931 39.6967 16.0315 39.7297 16.1245C39.7657 16.2175 39.8167 16.2985 39.8827 16.3675C39.9517 16.4335 40.0372 16.486 40.1392 16.525C40.2442 16.561 40.3642 16.579 40.4992 16.579ZM41.7547 19.207C41.7547 19.117 41.7277 19.0435 41.6737 18.9865C41.6197 18.9295 41.5462 18.886 41.4532 18.856C41.3602 18.823 41.2507 18.799 41.1247 18.784C41.0017 18.769 40.8697 18.7585 40.7287 18.7525C40.5907 18.7435 40.4467 18.736 40.2967 18.73C40.1497 18.724 40.0057 18.712 39.8647 18.694C39.7417 18.763 39.6412 18.844 39.5632 18.937C39.4882 19.03 39.4507 19.138 39.4507 19.261C39.4507 19.342 39.4702 19.417 39.5092 19.486C39.5512 19.558 39.6157 19.6195 39.7027 19.6705C39.7927 19.7215 39.9082 19.7605 40.0492 19.7875C40.1902 19.8175 40.3627 19.8325 40.5667 19.8325C40.7737 19.8325 40.9522 19.816 41.1022 19.783C41.2522 19.753 41.3752 19.7095 41.4712 19.6525C41.5702 19.5985 41.6422 19.5325 41.6872 19.4545C41.7322 19.3795 41.7547 19.297 41.7547 19.207ZM42.8617 14.5405V14.9545C42.8617 15.0865 42.7822 15.1675 42.6232 15.1975L42.2092 15.274C42.2722 15.433 42.3037 15.607 42.3037 15.796C42.3037 16.024 42.2572 16.231 42.1642 16.417C42.0742 16.6 41.9482 16.756 41.7862 16.885C41.6242 17.014 41.4322 17.1145 41.2102 17.1865C40.9912 17.2555 40.7542 17.29 40.4992 17.29C40.4092 17.29 40.3222 17.2855 40.2382 17.2765C40.1542 17.2675 40.0717 17.2555 39.9907 17.2405C39.8467 17.3275 39.7747 17.425 39.7747 17.533C39.7747 17.626 39.8167 17.695 39.9007 17.74C39.9877 17.782 40.1017 17.812 40.2427 17.83C40.3837 17.848 40.5442 17.86 40.7242 17.866C40.9042 17.869 41.0887 17.878 41.2777 17.893C41.4667 17.908 41.6512 17.935 41.8312 17.974C42.0112 18.01 42.1717 18.0685 42.3127 18.1495C42.4537 18.2305 42.5662 18.3415 42.6502 18.4825C42.7372 18.6205 42.7807 18.799 42.7807 19.018C42.7807 19.222 42.7297 19.42 42.6277 19.612C42.5287 19.804 42.3832 19.975 42.1912 20.125C42.0022 20.275 41.7682 20.395 41.4892 20.485C41.2132 20.578 40.8982 20.6245 40.5442 20.6245C40.1962 20.6245 39.8932 20.59 39.6352 20.521C39.3772 20.455 39.1627 20.365 38.9917 20.251C38.8207 20.14 38.6932 20.011 38.6092 19.864C38.5252 19.717 38.4832 19.564 38.4832 19.405C38.4832 19.189 38.5477 19.009 38.6767 18.865C38.8087 18.718 38.9887 18.601 39.2167 18.514C39.0937 18.451 38.9962 18.367 38.9242 18.262C38.8522 18.157 38.8162 18.019 38.8162 17.848C38.8162 17.779 38.8282 17.7085 38.8522 17.6365C38.8792 17.5615 38.9167 17.488 38.9647 17.416C39.0157 17.344 39.0787 17.2765 39.1537 17.2135C39.2287 17.1475 39.3172 17.089 39.4192 17.038C39.1852 16.912 39.0007 16.744 38.8657 16.534C38.7337 16.324 38.6677 16.078 38.6677 15.796C38.6677 15.568 38.7127 15.3625 38.8027 15.1795C38.8957 14.9935 39.0232 14.836 39.1852 14.707C39.3502 14.575 39.5437 14.4745 39.7657 14.4055C39.9907 14.3365 40.2352 14.302 40.4992 14.302C40.6972 14.302 40.8832 14.323 41.0572 14.365C41.2312 14.404 41.3902 14.4625 41.5342 14.5405H42.8617ZM47.5446 14.383V19H46.8651C46.7181 19 46.6251 18.9325 46.5861 18.7975L46.5096 18.4285C46.3206 18.6205 46.1121 18.7765 45.8841 18.8965C45.6561 19.0135 45.3876 19.072 45.0786 19.072C44.8266 19.072 44.6031 19.03 44.4081 18.946C44.2161 18.859 44.0541 18.7375 43.9221 18.5815C43.7901 18.4255 43.6896 18.241 43.6206 18.028C43.5546 17.812 43.5216 17.575 43.5216 17.317V14.383H44.6331V17.317C44.6331 17.599 44.6976 17.818 44.8266 17.974C44.9586 18.127 45.1551 18.2035 45.4161 18.2035C45.6081 18.2035 45.7881 18.1615 45.9561 18.0775C46.1241 17.9905 46.2831 17.872 46.4331 17.722V14.383H47.5446ZM49.6952 15.184C49.8392 14.908 50.0102 14.692 50.2082 14.536C50.4062 14.377 50.6402 14.2975 50.9102 14.2975C51.1232 14.2975 51.2942 14.344 51.4232 14.437L51.3512 15.2695C51.3362 15.3235 51.3137 15.3625 51.2837 15.3865C51.2567 15.4075 51.2192 15.418 51.1712 15.418C51.1262 15.418 51.0587 15.4105 50.9687 15.3955C50.8817 15.3805 50.7962 15.373 50.7122 15.373C50.5892 15.373 50.4797 15.391 50.3837 15.427C50.2877 15.463 50.2007 15.5155 50.1227 15.5845C50.0477 15.6505 49.9802 15.7315 49.9202 15.8275C49.8632 15.9235 49.8092 16.033 49.7582 16.156V19H48.6467V14.383H49.2992C49.4132 14.383 49.4927 14.404 49.5377 14.446C49.5827 14.485 49.6127 14.557 49.6277 14.662L49.6952 15.184ZM53.9152 14.311C54.2572 14.311 54.5677 14.3665 54.8467 14.4775C55.1287 14.5885 55.3687 14.746 55.5667 14.95C55.7677 15.154 55.9222 15.403 56.0302 15.697C56.1382 15.991 56.1922 16.3195 56.1922 16.6825C56.1922 17.0485 56.1382 17.3785 56.0302 17.6725C55.9222 17.9665 55.7677 18.217 55.5667 18.424C55.3687 18.631 55.1287 18.79 54.8467 18.901C54.5677 19.012 54.2572 19.0675 53.9152 19.0675C53.5702 19.0675 53.2567 19.012 52.9747 18.901C52.6927 18.79 52.4512 18.631 52.2502 18.424C52.0522 18.217 51.8977 17.9665 51.7867 17.6725C51.6787 17.3785 51.6247 17.0485 51.6247 16.6825C51.6247 16.3195 51.6787 15.991 51.7867 15.697C51.8977 15.403 52.0522 15.154 52.2502 14.95C52.4512 14.746 52.6927 14.5885 52.9747 14.4775C53.2567 14.3665 53.5702 14.311 53.9152 14.311ZM53.9152 18.2125C54.2992 18.2125 54.5827 18.0835 54.7657 17.8255C54.9517 17.5675 55.0447 17.1895 55.0447 16.6915C55.0447 16.1935 54.9517 15.814 54.7657 15.553C54.5827 15.292 54.2992 15.1615 53.9152 15.1615C53.5252 15.1615 53.2357 15.2935 53.0467 15.5575C52.8607 15.8185 52.7677 16.1965 52.7677 16.6915C52.7677 17.1865 52.8607 17.5645 53.0467 17.8255C53.2357 18.0835 53.5252 18.2125 53.9152 18.2125Z" fill="#9B9B9B"/>
<path d="M15.8334 8.94439H15.1945V7.66661C15.1945 5.90328 13.7634 4.47217 12 4.47217C10.2367 4.47217 8.80558 5.90328 8.80558 7.66661V8.94439H8.16669C7.46392 8.94439 6.88892 9.51939 6.88892 10.2222V16.6111C6.88892 17.3138 7.46392 17.8888 8.16669 17.8888H15.8334C16.5361 17.8888 17.1111 17.3138 17.1111 16.6111V10.2222C17.1111 9.51939 16.5361 8.94439 15.8334 8.94439ZM12 14.6944C11.2972 14.6944 10.7222 14.1194 10.7222 13.4166C10.7222 12.7138 11.2972 12.1388 12 12.1388C12.7028 12.1388 13.2778 12.7138 13.2778 13.4166C13.2778 14.1194 12.7028 14.6944 12 14.6944ZM13.9806 8.94439H10.0195V7.66661C10.0195 6.57411 10.9075 5.68606 12 5.68606C13.0925 5.68606 13.9806 6.57411 13.9806 7.66661V8.94439Z" fill="#9B9B9B"/>
<path fill-rule="evenodd" clip-rule="evenodd" d="M12 21.6471C17.6041 21.6471 22.1471 17.1041 22.1471 11.5C22.1471 5.89593 17.6041 1.35294 12 1.35294C6.39593 1.35294 1.85294 5.89593 1.85294 11.5C1.85294 17.1041 6.39593 21.6471 12 21.6471ZM12 23C18.3513 23 23.5 17.8513 23.5 11.5C23.5 5.14873 18.3513 0 12 0C5.64873 0 0.5 5.14873 0.5 11.5C0.5 17.8513 5.64873 23 12 23Z" fill="#9B9B9B"/>
</svg>
