<svg width="24" height="20" viewBox="0 0 24 20" fill="none" xmlns="http://www.w3.org/2000/svg">
<path d="M11.4 6.3999C9.744 6.3999 8.4 7.7439 8.4 9.3999C8.4 11.0559 9.744 12.3999 11.4 12.3999C13.056 12.3999 14.4 11.0559 14.4 9.3999C14.4 7.7439 13.056 6.3999 11.4 6.3999ZM21.6 0.399902H2.4C1.08 0.399902 0 1.4799 0 2.7999V17.1999C0 18.5199 1.08 19.5999 2.4 19.5999H21.6C22.92 19.5999 24 18.5199 24 17.1999V2.7999C24 1.4799 22.92 0.399902 21.6 0.399902ZM17.748 17.4519L14.256 13.9599C13.428 14.4879 12.444 14.7999 11.388 14.7999C8.412 14.7999 6 12.3879 6 9.3999C6 6.4119 8.412 3.9999 11.4 3.9999C14.388 3.9999 16.8 6.4119 16.8 9.3999C16.8 10.4559 16.488 11.4279 15.96 12.2679L19.452 15.7479L17.748 17.4519Z" fill="#96172E"/>
</svg>
