<svg width="24" height="14" viewBox="0 0 24 14" fill="none" xmlns="http://www.w3.org/2000/svg">
<path d="M1.09091 11.3637H22.9091V13.5455H1.09091V11.3637ZM2.34545 6.9455L3.27273 5.33095L4.2 6.9455L5.61818 6.12732L4.69091 4.51277H6.54545V2.87641H4.69091L5.61818 1.27277L4.2 0.45459L3.27273 2.05823L2.34545 0.45459L0.927273 1.27277L1.85455 2.87641H0V4.51277H1.85455L0.927273 6.12732L2.34545 6.9455ZM9.65455 6.12732L11.0727 6.9455L12 5.33095L12.9273 6.9455L14.3455 6.12732L13.4182 4.51277H15.2727V2.87641H13.4182L14.3455 1.27277L12.9273 0.45459L12 2.05823L11.0727 0.45459L9.65455 1.27277L10.5818 2.87641H8.72727V4.51277H10.5818L9.65455 6.12732ZM24 2.87641H22.1455L23.0727 1.27277L21.6545 0.45459L20.7273 2.05823L19.8 0.45459L18.3818 1.27277L19.3091 2.87641H17.4545V4.51277H19.3091L18.3818 6.12732L19.8 6.9455L20.7273 5.33095L21.6545 6.9455L23.0727 6.12732L22.1455 4.51277H24V2.87641Z" fill="#96172E"/>
</svg>
